<svg xmlns="http://www.w3.org/2000/svg" width="396" height="51" viewBox="0 0 396 51"><g><g><g><path fill="#333" d="M191 16.38v26.763c0 3.21-2.663 5.857-5.894 5.857-3.23 0-5.893-2.647-5.893-5.857V20.4c0-4.117-1.85-7.058-6.634-7.058-4.142 0-7.57 2.745-9.222 5.122v24.654c0 3.21-2.688 5.857-5.894 5.857-3.23 0-5.894-2.646-5.894-5.857V20.4c0-4.117-1.85-7.058-6.633-7.058-4.069 0-7.472 2.745-9.223 5.22v24.556c0 3.21-2.663 5.857-5.82 5.857A5.844 5.844 0 0 1 124 43.118V9.323c0-3.309 2.59-5.955 5.82-5.955 3.329 0 5.992 2.646 5.992 5.955v.465C137.71 7.118 143.506 3 150.238 3c6.535 0 10.702 3.014 12.354 8.063C165.182 7.019 171.075 3 177.906 3 186.117 3 191 7.313 191 16.38z"/></g><g><path fill="#333" d="M223.45 39.504c-7.258 0-11.319-6.021-11.319-13.059 0-6.938 4.06-12.96 11.32-12.96 7.284 0 11.418 6.022 11.418 12.96 0 7.038-4.134 13.06-11.418 13.06zm0 10.496C238.167 50 247 39.242 247 26.45 247 13.758 238.166 3 223.45 3 208.835 3 200 13.758 200 26.45c0 12.792 8.834 23.525 23.45 23.55z"/></g><g><path fill="#333" d="M294 8.84c0 .742-.17 1.559-.462 2.227l-12.915 32.39C279.261 46.7 276.173 49 272.524 49a8.82 8.82 0 0 1-8.196-5.543l-12.866-32.49c-.267-.643-.462-1.385-.462-2.127 0-3.242 2.456-5.84 5.643-5.84 2.359 0 4.45 1.386 5.277 3.613l10.556 28.406 10.458-28.406C283.76 4.386 285.925 3 288.309 3c3.259.025 5.691 2.598 5.691 5.84z"/></g><g><path fill="#333" d="M321.867 12.375c7.68 0 10.614 5.655 10.883 9.921h-21.766c.538-4.464 3.644-9.946 10.883-9.92zM299 26.438C299 40.823 309.15 50 322.6 50c5.136 0 10.248-1.19 14.552-3.696 1.37-.843 2.47-2.33 2.47-4.092 0-2.505-2.103-4.638-4.573-4.638-.832 0-1.565.199-2.201.57-2.74 1.588-6.016 2.506-8.951 2.506-7.508 0-11.984-4.738-12.718-10.392h25.875c4.476 0 6.946-1.662 6.946-5.556C344 13.02 335.024 3 321.867 3 308.416 3 299 13.466 299 26.438z"/></g><g><path fill="#333" d="M373.867 12.375c7.68 0 10.614 5.655 10.883 9.921h-21.766c.562-4.464 3.668-9.946 10.883-9.92zM351 26.438C351 40.823 361.15 50 374.6 50c5.136 0 10.248-1.19 14.552-3.696 1.37-.843 2.47-2.33 2.47-4.092 0-2.505-2.103-4.638-4.573-4.638-.832 0-1.565.199-2.201.57-2.74 1.588-6.016 2.506-8.951 2.506-7.508 0-11.984-4.738-12.718-10.392h25.875c4.476 0 6.946-1.662 6.946-5.556C396 13.02 387.024 3 373.867 3 360.416 3 351 13.466 351 26.438z"/></g><g><path fill="#00aeef" d="M90.278 21.356L70.476 1.712c-2.3-2.283-6.053-2.283-8.326 0L59 4.836l16.68 16.548c2.3 2.282 2.3 6.004 0 8.26L59 46.19l3.122 3.097c2.301 2.283 6.053 2.283 8.326 0l19.803-19.644a5.814 5.814 0 0 0 .027-8.288z"/></g><g><path fill="#f1b21d" d="M41.322 21.368L58 4.812l-3.122-3.1c-2.3-2.283-6.052-2.283-8.325 0L26.725 21.369c-2.3 2.283-2.3 6.008 0 8.264l19.8 19.655c2.3 2.284 6.053 2.284 8.326 0l3.122-3.099-16.678-16.556c-2.273-2.256-2.273-5.98.027-8.264z"/></g><g><path fill="#e71561" d="M16.322 21.368L33 4.812l-3.15-3.1c-2.3-2.283-6.052-2.283-8.325 0l-19.8 19.656c-2.3 2.283-2.3 6.008 0 8.264l19.8 19.655c2.3 2.284 6.053 2.284 8.326 0l3.122-3.099-16.678-16.556c-2.273-2.256-2.273-5.98.027-8.264z"/></g></g></g></svg>