<svg xmlns="http://www.w3.org/2000/svg" width="91" height="64" viewBox="0 0 91 64"><g><g opacity=".5"><g opacity=".5"><path d="M24 45c2.206 0 4 1.794 4 4s-1.794 4-4 4-4-1.794-4-4 1.794-4 4-4zm0 11c3.86 0 7-3.14 7-7s-3.14-7-7-7-7 3.14-7 7 3.14 7 7 7z"/></g><g opacity=".5"><path d="M67 53c-2.206 0-4-1.794-4-4s1.794-4 4-4 4 1.794 4 4-1.794 4-4 4zm0-11c-3.86 0-7 3.14-7 7s3.14 7 7 7 7-3.14 7-7-3.14-7-7-7z"/></g><g opacity=".5"><path d="M38.456 8.959h18.11c.425.02 1.515.726 1.71 1.1l5.002 10.982H38.456zm-11.843 0h4.595c.801 0 1.45-.663 1.45-1.48S32.009 6 31.208 6h-4.595c-2.015 0-5.225 1.416-6.606 2.913L8.394 21.507a1.503 1.503 0 0 0-.275 1.6c.23.542.752.893 1.33.893H65.55c.496 0 .956-.258 1.223-.684.266-.426.3-.961.092-1.42l-5.963-13.09C60.26 7.416 58.075 6 56.57 6H37.006c-.8 0-1.449.662-1.449 1.48V21.04H12.805l9.313-10.1c.82-.89 3.299-1.982 4.495-1.982z"/></g><g opacity=".5"><path d="M82.695 28.058c0-.19.008-.378.023-.565 2.548 1.49 4.606 4.372 5.201 7.283-2.994-.74-5.224-3.47-5.224-6.718zM66.574 61.072c-6.409 0-11.622-5.253-11.622-11.71 0-6.458 5.213-11.711 11.622-11.711 6.408 0 11.622 5.253 11.622 11.71 0 6.458-5.214 11.711-11.622 11.711zM24.436 37.651c6.409 0 11.622 5.253 11.622 11.71 0 6.458-5.213 11.711-11.622 11.711-6.408 0-11.622-5.253-11.622-11.71 0-6.458 5.214-11.711 11.622-11.711zM91 36.429c0-5.198-3.98-10.764-8.871-12.408-.004 0-6.792-2.282-6.792-2.282-1.133-.38-2.629-1.72-3.137-2.81L66.229 6.14C64.622 2.696 60.407 0 56.633 0h-30.01c-3.61 0-8.374 2.075-10.847 4.725L2.386 19.067C1.047 20.499 0 23.162 0 25.13v18.376c0 4.036 3.257 7.32 7.26 7.32h2.723C10.713 58.211 16.914 64 24.43 64S38.15 58.212 38.88 50.825h8.811c.802 0 1.452-.655 1.452-1.464 0-.808-.65-1.464-1.452-1.464H38.88c-.731-7.386-6.932-13.174-14.449-13.174-7.517 0-13.717 5.788-14.448 13.174H7.26c-2.402 0-4.357-1.97-4.357-4.391V25.13c0-1.229.761-3.162 1.596-4.057L17.89 6.731c1.925-2.062 5.924-3.803 8.732-3.803h30.011c2.649 0 5.84 2.04 6.968 4.457l5.97 12.791c.857 1.834 2.94 3.7 4.847 4.34l5.518 1.855a9.958 9.958 0 0 0-.145 1.686c0 4.926 3.611 9.017 8.305 9.726v5.723c0 2.422-1.618 4.392-3.608 4.392h-3.47c-.732-7.387-6.932-13.175-14.45-13.175-8.006 0-14.52 6.567-14.52 14.639 0 8.071 6.514 14.638 14.52 14.638 7.518 0 13.718-5.788 14.45-13.175h3.47c3.59 0 6.512-3.283 6.512-7.319z"/></g></g></g></svg>