<svg xmlns="http://www.w3.org/2000/svg" width="62" height="82" viewBox="0 0 62 82"><g><g opacity=".5"><g opacity=".5"><path d="M58.9 12.625H3.1V7.89c0-2.605 2.093-4.736 4.65-4.736h46.5c2.558 0 4.65 2.131 4.65 4.736zm0 34.683H3.1V15.769h55.8zm0 17.346c0 2.602-2.092 4.73-4.65 4.73H8.525c-2.48 0-5.425-2.128-5.425-4.73V50.462h55.8zM55.8 76.48c0 1.34-1.008 2.365-2.325 2.365h-1.55c-1.317 0-2.325-1.025-2.325-2.365v-3.943h4.65c.542 0 1.085-.078 1.55-.157zm-43.4.006c0 1.343-1.008 2.37-2.325 2.37h-1.55c-1.318 0-2.325-1.027-2.325-2.37v-4.343c.775.237 1.55.395 2.325.395H12.4zM54.25 0H7.75C3.487 0 0 3.548 0 7.885v56.769c0 2.444 1.317 4.494 3.178 5.913 0 .08-.078.237-.078.395v5.519C3.1 79.556 5.502 82 8.525 82h1.55c3.023 0 5.425-2.444 5.425-5.52v-3.942h31v3.943c0 3.075 2.402 5.519 5.425 5.519h1.55c3.022 0 5.425-2.444 5.425-5.52v-5.518a7.922 7.922 0 0 0 3.1-6.308V7.884C62 3.549 58.512 0 54.25 0z"/></g><g opacity=".5"><path d="M11.5 58c.825 0 1.5.675 1.5 1.5s-.675 1.5-1.5 1.5-1.5-.675-1.5-1.5.675-1.5 1.5-1.5zm0 6c2.475 0 4.5-2.025 4.5-4.5S13.975 55 11.5 55A4.513 4.513 0 0 0 7 59.5c0 2.475 2.025 4.5 4.5 4.5z"/></g><g opacity=".5"><path d="M50.5 58c.825 0 1.5.675 1.5 1.5s-.675 1.5-1.5 1.5-1.5-.675-1.5-1.5.675-1.5 1.5-1.5zm0 6c2.475 0 4.5-2.025 4.5-4.5S52.975 55 50.5 55a4.513 4.513 0 0 0-4.5 4.5c0 2.475 2.025 4.5 4.5 4.5z"/></g></g></g></svg>