<svg xmlns="http://www.w3.org/2000/svg" width="64" height="95" viewBox="0 0 64 95"><g><g opacity=".5"><g opacity=".5"><path d="M36.488 15h-9.976c-.807 0-1.512.7-1.512 1.5s.705 1.5 1.512 1.5h9.976c.807 0 1.512-.7 1.512-1.5s-.705-1.5-1.512-1.5z"/></g><g opacity=".5"><path d="M55.008 52.23H8.903V24.48h46.303v27.75h-.198zm-5.747 20.998H14.838c-3.265 0-5.935-2.687-5.935-5.972V55.215h46.194v12.14c.1 3.285-2.572 5.872-5.836 5.872zm2.671 11.925H11.87l4.65-8.852h30.763zm-43.03-66.84c0-3.282 2.672-5.967 5.937-5.967h34.43c3.266 0 5.937 2.685 5.937 5.968v3.183H8.903zm50.647 3.184h-1.484v-3.183c0-4.874-3.957-8.952-8.903-8.952H34.82l9.397-6.664c.693-.497.792-1.393.297-2.089-.494-.696-1.385-.795-2.077-.298L30.665 8.765 18.893.311c-.692-.497-1.582-.299-2.077.298-.495.696-.297 1.592.297 2.089l9.397 6.664H14.838c-4.847 0-8.903 3.979-8.903 8.952v3.183H4.451A4.445 4.445 0 0 0 0 25.972v9.847c0 .796.692 1.492 1.484 1.492.791 0 1.484-.696 1.484-1.492v-9.847c0-.795.692-1.492 1.483-1.492h1.484v42.77c0 4.376 3.165 8.056 7.32 8.752L4.55 92.812c-.395.696-.099 1.591.594 1.99.198.099.494.198.692.198.495 0 1.088-.298 1.286-.796l3.165-6.166h43.03l3.165 6.166c.297.498.792.796 1.286.796.198 0 .495-.1.693-.199.692-.398.989-1.293.593-1.99L50.35 76.003c4.254-.596 7.617-4.276 7.617-8.852V24.381h1.484c.791 0 1.484.696 1.484 1.492v9.847c.197.895.79 1.591 1.582 1.591S64 36.615 64 35.82v-9.847a4.445 4.445 0 0 0-4.451-4.475z"/></g><g opacity=".5"><path d="M16.5 62.213a1.611 1.611 0 0 1-1.628-1.622c0-.955.766-1.623 1.628-1.623.957 0 1.628.764 1.628 1.623s-.766 1.622-1.628 1.622zm0-6.213c-2.49 0-4.5 2.01-4.5 4.5s2.01 4.5 4.5 4.5 4.5-2.01 4.5-4.5-2.01-4.5-4.5-4.5z"/></g><g opacity=".5"><path d="M48.5 62.213a1.611 1.611 0 0 1-1.628-1.622c0-.955.766-1.623 1.628-1.623.862 0 1.628.764 1.628 1.623s-.766 1.622-1.628 1.622zm0-6.213c-2.49 0-4.5 2.01-4.5 4.5s2.01 4.5 4.5 4.5 4.5-2.01 4.5-4.5-2.01-4.5-4.5-4.5z"/></g><g opacity=".5"><path d="M35.525 59h-9.05C25.69 59 25 59.7 25 60.5s.689 1.5 1.475 1.5h9.05C36.31 62 37 61.3 37 60.5s-.689-1.5-1.475-1.5z"/></g></g></g></svg>